<svg width="56" height="56" viewBox="0 0 56 56" fill="none" xmlns="http://www.w3.org/2000/svg">
<rect width="56" height="56" rx="28" fill="#C7EEFF"/>
<path d="M20.1523 33.25V28C20.1523 25.9114 21.0209 23.9084 22.567 22.4315C24.1131 20.9547 26.21 20.125 28.3965 20.125C30.583 20.125 32.6799 20.9547 34.226 22.4315C35.7721 23.9084 36.6406 25.9114 36.6406 28V33.25" stroke="black" stroke-width="1.33333" stroke-linecap="round" stroke-linejoin="round"/>
<path d="M36.6406 34.125C36.6406 34.5891 36.4476 35.0342 36.104 35.3624C35.7605 35.6906 35.2945 35.875 34.8086 35.875H33.8926C33.4067 35.875 32.9407 35.6906 32.5971 35.3624C32.2536 35.0342 32.0605 34.5891 32.0605 34.125V31.5C32.0605 31.0359 32.2536 30.5908 32.5971 30.2626C32.9407 29.9344 33.4067 29.75 33.8926 29.75H36.6406V34.125ZM20.1523 34.125C20.1523 34.5891 20.3454 35.0342 20.6889 35.3624C21.0325 35.6906 21.4985 35.875 21.9844 35.875H22.9004C23.3863 35.875 23.8523 35.6906 24.1958 35.3624C24.5394 35.0342 24.7324 34.5891 24.7324 34.125V31.5C24.7324 31.0359 24.5394 30.5908 24.1958 30.2626C23.8523 29.9344 23.3863 29.75 22.9004 29.75H20.1523V34.125Z" stroke="black" stroke-width="1.33333" stroke-linecap="round" stroke-linejoin="round"/>
</svg>
