<svg width="129" height="25" viewBox="0 0 129 25" fill="none" xmlns="http://www.w3.org/2000/svg">
<path d="M2.28103 15.7953L6.68689 20.2012C6.68961 20.2039 6.69254 20.2064 6.69526 20.2092C6.69798 20.2119 6.70123 20.2156 6.70436 20.2187C7.99008 21.5043 9.68508 22.2996 11.4955 22.4668C13.306 22.6341 15.1179 22.1627 16.6174 21.1344C18.1169 22.1627 19.9288 22.6341 21.7392 22.4668C23.5498 22.2996 25.2447 21.5043 26.5304 20.2187L30.9363 15.8129C32.309 14.4399 33.1194 12.6037 33.2087 10.6642C33.2978 8.72472 32.6594 6.82175 31.4187 5.32844C30.1778 3.83522 28.424 2.85913 26.501 2.59171C24.578 2.32429 22.6243 2.78468 21.0231 3.88275C19.7267 2.99368 18.1915 2.51768 16.6196 2.51716C15.0475 2.51674 13.5122 2.9919 12.2152 3.88022C10.6159 2.77536 8.66123 2.30858 6.73526 2.57139C4.8093 2.83431 3.05125 3.80778 1.80639 5.30078C0.561636 6.79382 -0.0797977 8.69832 0.00794654 10.6401C0.0957954 12.582 0.906539 14.4208 2.28103 15.7953ZM23.4156 6.08903C24.4102 5.61397 25.5407 5.50591 26.6074 5.78382C27.674 6.0616 28.608 6.70763 29.2444 7.6076C29.8808 8.50753 30.1786 9.60341 30.0852 10.7017C29.9917 11.7999 29.513 12.8298 28.7337 13.6093L24.3279 18.0152C23.6441 18.6981 22.7656 19.1526 21.813 19.3163C20.8605 19.4799 19.8807 19.3447 19.0082 18.9291L22.1247 15.8129C23.3198 14.624 24.0935 13.0769 24.3279 11.4075C24.3795 11.0425 24.4055 10.6743 24.4058 10.3057C24.4089 8.84825 24.0002 7.41963 23.2268 6.18432C23.2892 6.151 23.3521 6.11938 23.4156 6.08935V6.08903ZM13.313 7.00103C14.1904 6.12944 15.3775 5.64128 16.6141 5.64328C17.8509 5.64538 19.0362 6.1376 19.9107 7.012C20.7851 7.88653 21.2774 9.07191 21.2795 10.3086C21.2815 11.5453 20.7933 12.7323 19.9217 13.6097L16.6174 16.914L13.313 13.6097C12.4382 12.7327 11.947 11.5445 11.947 10.3057C11.947 9.067 12.4382 7.87878 13.313 7.00175V7.00103ZM4.48395 6.98353C5.17105 6.29822 6.05414 5.84347 7.01105 5.68213C7.96798 5.52078 8.95139 5.66088 9.82517 6.08307C9.88798 6.11332 9.95017 6.14503 10.0116 6.17822C9.23586 7.41494 8.82583 8.84585 8.82898 10.3057C8.8293 10.6743 8.85526 11.0425 8.90689 11.4075C9.1412 13.0769 9.91501 14.624 11.1101 15.8129L14.2076 18.9103L14.225 18.9278C13.353 19.3431 12.3736 19.4784 11.4215 19.3152C10.4694 19.1519 9.59123 18.6981 8.9073 18.0159C8.90417 18.0127 8.90123 18.0094 8.8982 18.0063C8.89514 18.0031 8.89254 18.001 8.88983 17.9983L4.50458 13.6131L4.48364 13.5921C3.60736 12.7157 3.11502 11.5271 3.11502 10.2878C3.11502 9.04847 3.60736 7.85982 4.48364 6.98344L4.48395 6.98353Z" fill="#0077C0"/>
<path d="M44.0338 18.75H46.9147L49.5122 9.30661H49.571L52.1588 18.75H55.0397L58.78 4.65817H55.7232L53.4869 14.7558H53.4285L50.8307 4.65817H48.2428L45.645 14.7558H45.5866L43.36 4.65817H40.3035L44.0338 18.75ZM61.9147 18.916C63.2916 18.916 64.405 18.2617 65.0007 17.1875H65.0591V18.75H67.9107V11.5722C67.9107 9.46286 66.1628 8.06639 63.4575 8.06639C60.6941 8.06639 59.0338 9.45311 58.8775 11.3867L58.8678 11.5039H61.4753L61.4947 11.416C61.6316 10.7422 62.276 10.2441 63.3403 10.2441C64.4538 10.2441 65.0591 10.8203 65.0591 11.748V12.3925L62.4713 12.5488C59.8738 12.7148 58.3991 13.8281 58.3991 15.7324V15.7519C58.3991 17.5976 59.815 18.916 61.9147 18.916ZM61.2213 15.6055V15.5859C61.2213 14.8437 61.7975 14.375 62.901 14.3066L65.0591 14.1699V14.9219C65.0591 16.0156 64.1216 16.8359 62.8425 16.8359C61.856 16.8359 61.2213 16.3769 61.2213 15.6055ZM69.8541 18.75H72.7057V15.2832L73.4382 14.4726L76.4363 18.75H79.7272L75.5769 12.7832L79.5319 8.28124H76.2994L72.7644 12.4707H72.7057V4.65817H69.8541V18.75ZM83.5747 18.916C84.9519 18.916 86.065 18.2617 86.6606 17.1875H86.7194V18.75H89.571V11.5722C89.571 9.46286 87.8228 8.06639 85.1178 8.06639C82.3541 8.06639 80.6941 9.45311 80.5378 11.3867L80.5278 11.5039H83.1353L83.155 11.416C83.2916 10.7422 83.9363 10.2441 85.0006 10.2441C86.1138 10.2441 86.7194 10.8203 86.7194 11.748V12.3925L84.1316 12.5488C81.5338 12.7148 80.0591 13.8281 80.0591 15.7324V15.7519C80.0591 17.5976 81.4753 18.916 83.5747 18.916ZM82.8816 15.6055V15.5859C82.8816 14.8437 83.4575 14.375 84.5613 14.3066L86.7194 14.1699V14.9219C86.7194 16.0156 85.7819 16.8359 84.5025 16.8359C83.5163 16.8359 82.8816 16.3769 82.8816 15.6055ZM91.4166 18.75H94.2682V12.7344C94.2682 11.3672 95.0788 10.4297 96.3582 10.4297C97.6372 10.4297 98.2819 11.2109 98.2819 12.5781V18.75H101.133V11.9922C101.133 9.54099 99.8247 8.06639 97.52 8.06639C95.9381 8.06639 94.8638 8.7988 94.3269 9.99999H94.2682V8.28124H91.4166V18.75ZM106.817 18.9648C108.331 18.9648 109.483 18.2031 110.04 16.9629H110.098V18.75H112.95V4.65817H110.098V10.0976H110.04C109.473 8.82811 108.301 8.06639 106.817 8.06639C104.18 8.06639 102.559 10.0976 102.559 13.5058V13.5156C102.559 16.914 104.18 18.9648 106.817 18.9648ZM107.774 16.6015C106.348 16.6015 105.46 15.4199 105.46 13.5156V13.5058C105.46 11.5918 106.358 10.4297 107.774 10.4297C109.151 10.4297 110.108 11.6211 110.108 13.5058V13.5156C110.108 15.4101 109.161 16.6015 107.774 16.6015ZM117.969 18.916C119.346 18.916 120.46 18.2617 121.055 17.1875H121.114V18.75H123.965V11.5722C123.965 9.46286 122.218 8.06639 119.512 8.06639C116.749 8.06639 115.088 9.45311 114.932 11.3867L114.923 11.5039H117.53L117.549 11.416C117.686 10.7422 118.331 10.2441 119.395 10.2441C120.508 10.2441 121.114 10.8203 121.114 11.748V12.3925L118.526 12.5488C115.928 12.7148 114.454 13.8281 114.454 15.7324V15.7519C114.454 17.5976 115.87 18.916 117.969 18.916ZM117.276 15.6055V15.5859C117.276 14.8437 117.852 14.375 118.956 14.3066L121.114 14.1699V14.9219C121.114 16.0156 120.176 16.8359 118.897 16.8359C117.911 16.8359 117.276 16.3769 117.276 15.6055Z" fill="black"/>
</svg>
