<svg width="128" height="33" viewBox="0 0 128 33" fill="none" xmlns="http://www.w3.org/2000/svg">
<g clip-path="url(#clip0_4_47)">
<path d="M40.9956 25.5742L42.5892 21.873C44.3113 23.1582 46.5988 23.8264 48.8607 23.8264C50.5314 23.8264 51.5852 23.1839 51.5852 22.2072C51.5595 19.4827 41.5868 21.616 41.5097 14.779C41.484 11.3092 44.5683 8.63607 48.9378 8.63607C51.5338 8.63607 54.1297 9.27864 55.9803 10.7437L54.4896 14.522C52.7932 13.4425 50.6856 12.6714 48.6807 12.6714C47.3185 12.6714 46.4189 13.314 46.4189 14.1365C46.4446 16.8096 56.4944 15.3445 56.5972 21.873C56.5972 25.42 53.59 27.9132 49.2719 27.9132C46.1105 27.9132 43.206 27.1678 40.9956 25.5742ZM102.143 20.5365C101.346 21.9244 99.855 22.8754 98.133 22.8754C95.5884 22.8754 93.5322 20.8192 93.5322 18.2746C93.5322 15.73 95.5884 13.6738 98.133 13.6738C99.855 13.6738 101.346 14.6248 102.143 16.0128L106.538 13.571C104.893 10.6409 101.731 8.63607 98.133 8.63607C92.8125 8.63607 88.4944 12.9541 88.4944 18.2746C88.4944 23.5951 92.8125 27.9132 98.133 27.9132C101.757 27.9132 104.893 25.9341 106.538 22.9782L102.143 20.5365ZM58.8077 0.64249H64.3081V27.5533H58.8077V0.64249ZM108.697 0.64249V27.5533H114.197V19.4827L120.726 27.5533H127.768L119.466 17.9662L127.151 9.02161H120.417L114.197 16.4497V0.64249H108.697ZM80.655 20.5879C79.8583 21.8987 78.2133 22.8754 76.3627 22.8754C73.8181 22.8754 71.7619 20.8192 71.7619 18.2746C71.7619 15.73 73.8181 13.6738 76.3627 13.6738C78.2133 13.6738 79.8583 14.7019 80.655 16.0385V20.5879ZM80.655 9.02161V11.2063C79.7554 9.68988 77.5193 8.63607 75.1803 8.63607C70.3482 8.63607 66.5442 12.9027 66.5442 18.2489C66.5442 23.5951 70.3482 27.9132 75.1803 27.9132C77.5193 27.9132 79.7554 26.8594 80.655 25.3429V27.5276H86.1555V9.02161H80.655Z" fill="#999999"/>
<path d="M6.99087 20.5622C6.99087 22.4385 5.4744 23.9549 3.59809 23.9549C1.72179 23.9549 0.205322 22.4385 0.205322 20.5622C0.205322 18.6859 1.72179 17.1694 3.59809 17.1694H6.99087V20.5622ZM8.68725 20.5622C8.68725 18.6859 10.2037 17.1694 12.08 17.1694C13.9563 17.1694 15.4728 18.6859 15.4728 20.5622V29.0441C15.4728 30.9204 13.9563 32.4369 12.08 32.4369C10.2037 32.4369 8.68725 30.9204 8.68725 29.0441V20.5622Z" fill="#999999"/>
<path d="M12.0801 6.93966C10.2038 6.93966 8.68732 5.42319 8.68732 3.54689C8.68732 1.67058 10.2038 0.154118 12.0801 0.154118C13.9564 0.154118 15.4729 1.67058 15.4729 3.54689V6.93966H12.0801ZM12.0801 8.66175C13.9564 8.66175 15.4729 10.1782 15.4729 12.0545C15.4729 13.9308 13.9564 15.4473 12.0801 15.4473H3.57246C1.69615 15.4473 0.179688 13.9308 0.179688 12.0545C0.179688 10.1782 1.69615 8.66175 3.57246 8.66175H12.0801Z" fill="#999999"/>
<path d="M25.677 12.0545C25.677 10.1782 27.1935 8.66175 29.0698 8.66175C30.9461 8.66175 32.4625 10.1782 32.4625 12.0545C32.4625 13.9308 30.9461 15.4473 29.0698 15.4473H25.677V12.0545ZM23.9806 12.0545C23.9806 13.9308 22.4641 15.4473 20.5878 15.4473C18.7115 15.4473 17.1951 13.9308 17.1951 12.0545V3.54689C17.1951 1.67058 18.7115 0.154118 20.5878 0.154118C22.4641 0.154118 23.9806 1.67058 23.9806 3.54689V12.0545Z" fill="#999999"/>
<path d="M20.5878 25.6513C22.4641 25.6513 23.9806 27.1678 23.9806 29.0441C23.9806 30.9204 22.4641 32.4369 20.5878 32.4369C18.7115 32.4369 17.1951 30.9204 17.1951 29.0441V25.6513H20.5878ZM20.5878 23.9549C18.7115 23.9549 17.1951 22.4385 17.1951 20.5622C17.1951 18.6859 18.7115 17.1694 20.5878 17.1694H29.0955C30.9718 17.1694 32.4882 18.6859 32.4882 20.5622C32.4882 22.4385 30.9718 23.9549 29.0955 23.9549H20.5878Z" fill="#999999"/>
</g>
<defs>
<clipPath id="clip0_4_47">
<rect width="128" height="32.6426" fill="white"/>
</clipPath>
</defs>
</svg>
