<svg width="129" height="43" viewBox="0 0 129 43" fill="none" xmlns="http://www.w3.org/2000/svg">
<path d="M124.234 25.6033L127.797 27.9705C126.64 29.668 123.875 32.5803 119.094 32.5803C113.156 32.5803 108.734 28.0016 108.734 22.177C108.734 15.9787 113.203 11.7738 118.594 11.7738C124.015 11.7738 126.672 16.0721 127.531 18.3926L128 19.5762L114.031 25.3385C115.094 27.4254 116.75 28.4844 119.094 28.4844C121.437 28.4844 123.062 27.332 124.234 25.6033ZM113.281 21.85L122.609 17.9877C122.094 16.6951 120.562 15.7762 118.734 15.7762C116.406 15.7762 113.172 17.832 113.281 21.85Z" fill="#999999"/>
<path d="M102 1.16801H106.5V31.6303H102V1.16801Z" fill="#999999"/>
<path d="M94.9063 12.5837H99.25V31.0853C99.25 38.7632 94.7031 41.9247 89.3281 41.9247C84.2656 41.9247 81.2187 38.5296 80.0781 35.773L84.0625 34.1222C84.7813 35.8197 86.5156 37.8288 89.3281 37.8288C92.7813 37.8288 94.9063 35.6952 94.9063 31.7083V30.2132H94.75C93.7188 31.4591 91.75 32.5804 89.25 32.5804C84.0313 32.5804 79.25 28.0484 79.25 22.2083C79.25 16.337 84.0313 11.7583 89.25 11.7583C91.7344 11.7583 93.7188 12.864 94.75 14.0788H94.9063V12.5837ZM95.2188 22.2083C95.2188 18.5329 92.7656 15.8542 89.6406 15.8542C86.4844 15.8542 83.8281 18.5329 83.8281 22.2083C83.8281 25.837 86.4844 28.4689 89.6406 28.4689C92.7656 28.4845 95.2188 25.837 95.2188 22.2083Z" fill="#999999"/>
<path d="M54.5469 22.1303C54.5469 28.1262 49.8594 32.5336 44.1094 32.5336C38.3594 32.5336 33.6719 28.1107 33.6719 22.1303C33.6719 16.1033 38.3594 11.7115 44.1094 11.7115C49.8594 11.7115 54.5469 16.1033 54.5469 22.1303ZM49.9844 22.1303C49.9844 18.3926 47.2656 15.823 44.1094 15.823C40.9531 15.823 38.2344 18.3926 38.2344 22.1303C38.2344 25.8369 40.9531 28.4377 44.1094 28.4377C47.2656 28.4377 49.9844 25.8369 49.9844 22.1303Z" fill="#999999"/>
<path d="M77.3438 22.177C77.3438 28.1729 72.6563 32.5803 66.9062 32.5803C61.1562 32.5803 56.4688 28.1729 56.4688 22.177C56.4688 16.15 61.1562 11.7738 66.9062 11.7738C72.6563 11.7738 77.3438 16.1344 77.3438 22.177ZM72.7656 22.177C72.7656 18.4393 70.0469 15.8697 66.8906 15.8697C63.7344 15.8697 61.0156 18.4393 61.0156 22.177C61.0156 25.8836 63.7344 28.4844 66.8906 28.4844C70.0625 28.4844 72.7656 25.868 72.7656 22.177Z" fill="#999999"/>
<path d="M16.5156 28.0172C9.96875 28.0172 4.84375 22.7533 4.84375 16.2279C4.84375 9.70246 9.96875 4.43853 16.5156 4.43853C20.0469 4.43853 22.625 5.82459 24.5312 7.6L27.6719 4.46967C25.0156 1.93115 21.4688 0 16.5156 0C7.54688 0 0 7.28853 0 16.2279C0 25.1672 7.54688 32.4557 16.5156 32.4557C21.3594 32.4557 25.0156 30.8672 27.875 27.9082C30.8125 24.9803 31.7188 20.8689 31.7188 17.5361C31.7188 16.4926 31.5938 15.418 31.4531 14.6238H16.5156V18.9533H27.1562C26.8438 21.6631 25.9844 23.5164 24.7188 24.7779C23.1875 26.3197 20.7656 28.0172 16.5156 28.0172Z" fill="#999999"/>
</svg>
