<svg width="129" height="40" viewBox="0 0 129 40" fill="none" xmlns="http://www.w3.org/2000/svg">
<g clip-path="url(#clip0_4_37)">
<path d="M68.4622 10.05C68.4622 11.4915 67.3026 12.6527 65.8631 12.6527C64.4235 12.6527 63.2639 11.4915 63.2639 10.05C63.2639 8.60861 64.3835 7.44745 65.8631 7.44745C67.3426 7.48749 68.4622 8.64865 68.4622 10.05ZM57.7456 15.2953C57.7456 15.5355 57.7456 15.9359 57.7456 15.9359C57.7456 15.9359 56.506 14.3343 53.8668 14.3343C49.5082 14.3343 46.1092 17.6577 46.1092 22.2623C46.1092 26.8268 49.4682 30.1902 53.8668 30.1902C56.546 30.1902 57.7456 28.5485 57.7456 28.5485V29.2292C57.7456 29.5495 57.9855 29.7898 58.3054 29.7898H61.5444V14.7347C61.5444 14.7347 58.5853 14.7347 58.3054 14.7347C57.9855 14.7347 57.7456 15.015 57.7456 15.2953ZM57.7456 24.9449C57.1458 25.8258 55.9462 26.5866 54.5066 26.5866C51.9474 26.5866 49.988 24.985 49.988 22.2623C49.988 19.5395 51.9474 17.9379 54.5066 17.9379C55.9062 17.9379 57.1858 18.7387 57.7456 19.5796V24.9449ZM63.9437 14.7347H67.7825V29.7898H63.9437V14.7347ZM121.286 14.3343C118.647 14.3343 117.407 15.9359 117.407 15.9359V7.48749H113.568V29.7898C113.568 29.7898 116.527 29.7898 116.807 29.7898C117.127 29.7898 117.367 29.5095 117.367 29.2292V28.5485C117.367 28.5485 118.607 30.1902 121.246 30.1902C125.604 30.1902 129.003 26.8268 129.003 22.2623C129.003 17.6977 125.604 14.3343 121.286 14.3343ZM120.646 26.5465C119.166 26.5465 118.007 25.7858 117.407 24.9049V19.5395C118.007 18.7387 119.286 17.8979 120.646 17.8979C123.205 17.8979 125.165 19.4995 125.165 22.2222C125.165 24.9449 123.205 26.5465 120.646 26.5465ZM111.569 20.8609V29.8298H107.73V21.3013C107.73 18.8188 106.93 17.8178 104.771 17.8178C103.611 17.8178 102.412 18.4184 101.652 19.2993V29.7898H97.8131V14.7347H100.852C101.172 14.7347 101.412 15.015 101.412 15.2953V15.9359C102.532 14.7748 104.011 14.3343 105.491 14.3343C107.17 14.3343 108.57 14.8148 109.689 15.7758C111.049 16.8969 111.569 18.3383 111.569 20.8609ZM88.496 14.3343C85.8568 14.3343 84.6172 15.9359 84.6172 15.9359V7.48749H80.7784V29.7898C80.7784 29.7898 83.7375 29.7898 84.0174 29.7898C84.3373 29.7898 84.5772 29.5095 84.5772 29.2292V28.5485C84.5772 28.5485 85.8168 30.1902 88.456 30.1902C92.8146 30.1902 96.2136 26.8268 96.2136 22.2623C96.2536 17.6977 92.8546 14.3343 88.496 14.3343ZM87.8562 26.5465C86.3766 26.5465 85.217 25.7858 84.6172 24.9049V19.5395C85.217 18.7387 86.4966 17.8979 87.8562 17.8979C90.4154 17.8979 92.3748 19.4995 92.3748 22.2222C92.3748 24.9449 90.4154 26.5465 87.8562 26.5465ZM77.4594 14.3343C78.6191 14.3343 79.2189 14.5345 79.2189 14.5345V18.0981C79.2189 18.0981 76.0199 17.017 74.0205 19.2993V29.8298H70.1817V14.7347C70.1817 14.7347 73.1408 14.7347 73.4207 14.7347C73.7406 14.7347 73.9805 15.015 73.9805 15.2953V15.9359C74.7003 15.0951 76.2598 14.3343 77.4594 14.3343ZM37.5919 28.4284C37.392 27.9479 37.192 27.4274 36.9921 26.987C36.6722 26.2663 36.3523 25.5856 36.0724 24.9449L36.0324 24.9049C33.2732 18.8989 30.3142 12.8128 27.1951 6.80681L27.0752 6.56657C26.7553 5.96597 26.4354 5.32533 26.1155 4.68468C25.7156 3.96396 25.3157 3.2032 24.6759 2.48248C23.3963 0.880881 21.5569 0 19.5975 0C17.5981 0 15.7987 0.880881 14.4791 2.4024C13.8793 3.12312 13.4394 3.88388 13.0396 4.6046C12.7197 5.24525 12.3998 5.88589 12.0799 6.48649L11.9599 6.72673C8.88087 12.7327 5.88181 18.8188 3.12267 24.8248L3.08268 24.9049C2.80277 25.5455 2.48287 26.2262 2.16297 26.9469C1.96303 27.3874 1.76309 27.8679 1.56316 28.3884C1.04332 29.8699 0.88337 31.2713 1.08331 32.7127C1.52317 35.7157 3.52254 38.2382 6.28168 39.3594C7.32136 39.7998 8.40102 40 9.52067 40C9.84057 40 10.2404 39.96 10.5603 39.9199C11.8799 39.7598 13.2395 39.3193 14.5591 38.5586C16.1986 37.6376 17.7581 36.3163 19.5175 34.3944C21.277 36.3163 22.8765 37.6376 24.476 38.5586C25.7956 39.3193 27.1552 39.7598 28.4747 39.9199C28.7946 39.96 29.1945 40 29.5144 40C30.6341 40 31.7537 39.7998 32.7534 39.3594C35.5525 38.2382 37.5119 35.6757 37.9518 32.7127C38.2717 31.3113 38.1117 29.9099 37.5919 28.4284ZM19.5575 30.5105C17.3982 27.7878 15.9986 25.2252 15.5188 23.0631C15.3189 22.1421 15.2789 21.3413 15.3988 20.6206C15.4788 19.98 15.7187 19.4194 16.0386 18.9389C16.7984 17.8579 18.078 17.1772 19.5575 17.1772C21.0371 17.1772 22.3567 17.8178 23.0764 18.9389C23.3963 19.4194 23.6363 19.98 23.7162 20.6206C23.8362 21.3413 23.7962 22.1822 23.5963 23.0631C23.1164 25.1852 21.7169 27.7477 19.5575 30.5105ZM35.5125 32.3924C35.2326 34.4745 33.8331 36.2763 31.8737 37.0771C30.914 37.4775 29.8743 37.5976 28.8346 37.4775C27.8349 37.3574 26.8353 37.037 25.7956 36.4364C24.356 35.6356 22.9165 34.3944 21.237 32.5526C23.8762 29.3093 25.4757 26.3463 26.0755 23.7037C26.3554 22.4625 26.3954 21.3413 26.2754 20.3003C26.1155 19.2993 25.7556 18.3784 25.1958 17.5776C23.9562 15.7758 21.8768 14.7347 19.5575 14.7347C17.2383 14.7347 15.1589 15.8158 13.9193 17.5776C13.3595 18.3784 12.9996 19.2993 12.8396 20.3003C12.6797 21.3413 12.7197 22.5025 13.0396 23.7037C13.6394 26.3463 15.2789 29.3493 17.8781 32.5926C16.2386 34.4344 14.759 35.6757 13.3195 36.4765C12.2798 37.0771 11.2801 37.3974 10.2804 37.5175C9.20077 37.6376 8.1611 37.4775 7.24138 37.1171C5.28199 36.3163 3.88243 34.5145 3.60252 32.4324C3.48256 31.4314 3.56253 30.4304 3.96241 29.3093C4.08237 28.9089 4.28231 28.5085 4.48224 28.028C4.76216 27.3874 5.08206 26.7067 5.40196 26.026L5.44195 25.9459C8.20108 19.98 11.1602 13.8939 14.2392 7.96797L14.3592 7.72773C14.6791 7.12713 14.999 6.48649 15.3189 5.88589C15.6388 5.24524 15.9986 4.64464 16.4385 4.12412C17.2782 3.16316 18.3979 2.64264 19.6375 2.64264C20.8771 2.64264 21.9968 3.16316 22.8365 4.12412C23.2764 4.64464 23.6363 5.24524 23.9562 5.88589C24.2761 6.48649 24.596 7.12713 24.9159 7.72773L25.0358 7.96797C28.0749 13.9339 31.0339 20.02 33.7931 25.986V26.026C34.113 26.6667 34.3929 27.3874 34.7128 28.028C34.9127 28.5085 35.1127 28.9089 35.2326 29.3093C35.5525 30.3503 35.6725 31.3514 35.5125 32.3924Z" fill="#999999"/>
</g>
<defs>
<clipPath id="clip0_4_37">
<rect width="129" height="40" fill="white"/>
</clipPath>
</defs>
</svg>
