<svg width="128" height="35" viewBox="0 0 128 35" fill="none" xmlns="http://www.w3.org/2000/svg">
<g clip-path="url(#clip0_4_54)">
<path d="M17.6004 32.3932C15.6749 32.7316 13.7155 32.8331 11.6886 33.1033L5.50637 14.9795V33.8812C3.58087 34.084 1.82425 34.3545 0 34.625V0H5.135L12.1615 19.6459V0H17.6004V32.3932ZM28.2418 12.6801C30.3364 12.6801 33.5456 12.5786 35.4711 12.5786V17.9886C33.0725 17.9886 30.2688 17.9886 28.2418 18.0901V26.1378C31.4174 25.935 34.5929 25.6643 37.802 25.5628V30.7698L22.8365 31.9535V0H37.802V5.41016H28.2418V12.6801ZM57.9022 5.41029H52.2945V30.297C50.4702 30.297 48.646 30.297 46.8896 30.3644V5.41029H41.2819V0H57.9025L57.9022 5.41029ZM66.6855 12.3082H74.0839V17.7183H66.6855V29.9927H61.3814V0H76.4824V5.41016H66.6855V12.3082ZM85.2656 25.2586C88.3399 25.3261 91.4476 25.5632 94.4544 25.732V31.0746C89.6236 30.77 84.7928 30.4661 79.8606 30.3644V0H85.2656V25.2586ZM99.0149 31.4465C100.738 31.5481 102.562 31.6496 104.319 31.8522V0H99.0149V31.4465ZM128 0L121.142 16.4672L128 34.625C125.973 34.3545 123.946 33.9825 121.919 33.6443L118.034 23.6358L114.082 32.8331C112.122 32.4946 110.231 32.3932 108.272 32.1227L115.231 16.2641L108.947 0H114.757L118.304 9.09585L122.088 0H128V0Z" fill="#999999"/>
</g>
<defs>
<clipPath id="clip0_4_54">
<rect width="128" height="34.625" fill="white"/>
</clipPath>
</defs>
</svg>
