<svg width="128" height="39" viewBox="0 0 128 39" fill="none" xmlns="http://www.w3.org/2000/svg">
<g clip-path="url(#clip0_4_56)">
<path fill-rule="evenodd" clip-rule="evenodd" d="M79.409 30.13C71.9706 35.6062 61.1893 38.5279 51.9067 38.5279C38.8911 38.5279 27.1737 33.7196 18.309 25.7224C17.6126 25.0935 18.2366 24.2365 19.0724 24.7262C28.6391 30.2858 40.4679 33.6305 52.6868 33.6305C60.9274 33.6305 69.9927 31.9276 78.328 28.3937C79.5872 27.8594 80.6403 29.2173 79.409 30.13Z" fill="#999999"/>
<path fill-rule="evenodd" clip-rule="evenodd" d="M82.5012 26.5961C81.554 25.3829 76.2163 26.0229 73.8205 26.3067C73.0906 26.3958 72.9791 25.7614 73.6366 25.305C77.8878 22.3165 84.8637 23.1791 85.6771 24.1808C86.4906 25.1881 85.4654 32.1725 81.4705 35.506C80.8576 36.018 80.2725 35.7454 80.5456 35.0664C81.4426 32.8292 83.454 27.8149 82.5012 26.5961Z" fill="#999999"/>
<path fill-rule="evenodd" clip-rule="evenodd" d="M73.9876 4.20731V1.30227C73.9876 0.862613 74.3219 0.567657 74.7231 0.567657H87.7443C88.1622 0.567657 88.4965 0.868179 88.4965 1.30227V3.78992C88.4909 4.20731 88.1399 4.7527 87.5158 5.6153L80.7684 15.2376C83.2757 15.1763 85.9223 15.5492 88.1956 16.8292C88.7082 17.1186 88.8475 17.5416 88.8865 17.959V21.0588C88.8865 21.4817 88.4185 21.977 87.9282 21.721C83.9221 19.6229 78.601 19.3948 74.1715 21.7433C73.7202 21.9882 73.2466 21.4984 73.2466 21.0755V18.1315C73.2466 17.6584 73.2521 16.8515 73.7257 16.1336L81.5429 4.93635H74.7398C74.3219 4.93635 73.9876 4.6414 73.9876 4.20731Z" fill="#999999"/>
<path fill-rule="evenodd" clip-rule="evenodd" d="M26.4882 22.3331H22.5267C22.1478 22.3053 21.847 22.0215 21.8191 21.6598V1.35231C21.8191 0.946047 22.159 0.623263 22.5824 0.623263H26.2765C26.661 0.639947 26.9674 0.934913 26.9953 1.30222V3.95683H27.0677C28.0316 1.39126 29.8424 0.19474 32.2829 0.19474C34.7623 0.19474 36.3112 1.39126 37.4256 3.95683C38.3839 1.39126 40.5625 0.19474 42.8971 0.19474C44.5574 0.19474 46.3738 0.879261 47.4826 2.41526C48.7363 4.12378 48.48 6.60586 48.48 8.78186L48.4744 21.5985C48.4744 22.0048 48.1345 22.3331 47.7111 22.3331H43.7551C43.3595 22.3053 43.0419 21.9881 43.0419 21.5985V10.8354C43.0419 9.97838 43.1199 7.84134 42.9305 7.02882C42.6352 5.66535 41.7493 5.28134 40.6015 5.28134C39.6432 5.28134 38.6402 5.92134 38.2335 6.94534C37.8268 7.96934 37.8658 9.68342 37.8658 10.8354V21.5985C37.8658 22.0048 37.5259 22.3331 37.1024 22.3331H33.1465C32.7453 22.3053 32.4333 21.9881 32.4333 21.5985L32.4277 10.8354C32.4277 8.57038 32.801 5.23682 29.9873 5.23682C27.1401 5.23682 27.2516 8.4869 27.2516 10.8354V21.5985C27.2516 22.0048 26.9117 22.3331 26.4882 22.3331" fill="#999999"/>
<path fill-rule="evenodd" clip-rule="evenodd" d="M99.7068 0.19474C105.585 0.19474 108.766 5.23682 108.766 11.6479C108.766 17.842 105.251 22.7561 99.7068 22.7561C93.9345 22.7561 90.792 17.714 90.792 11.4309C90.792 5.10882 93.9735 0.19474 99.7068 0.19474ZM99.7402 4.34083C96.8206 4.34083 96.6368 8.31438 96.6368 10.7909C96.6368 13.273 96.5978 18.5711 99.7068 18.5711C102.777 18.5711 102.922 14.297 102.922 11.6925C102.922 9.97838 102.849 7.93039 102.331 6.30534C101.885 4.89178 100.999 4.34083 99.7402 4.34083Z" fill="#999999"/>
<path fill-rule="evenodd" clip-rule="evenodd" d="M116.389 22.3331H112.444C112.048 22.3053 111.731 21.9881 111.731 21.5985L111.725 1.28552C111.759 0.912652 112.087 0.623263 112.488 0.623263H116.16C116.506 0.639947 116.79 0.873697 116.868 1.19091V4.2963H116.94C118.049 1.51926 119.604 0.19474 122.339 0.19474C124.117 0.19474 125.85 0.834741 126.964 2.58778C128 4.21282 128 6.94534 128 8.90986V21.6932C127.956 22.0493 127.627 22.3331 127.237 22.3331H123.264C122.902 22.3053 122.601 22.0382 122.562 21.6932V10.6629C122.562 8.44238 122.818 5.1923 120.083 5.1923C119.119 5.1923 118.233 5.83787 117.793 6.81734C117.236 8.05839 117.163 9.29386 117.163 10.6629V21.5985C117.158 22.0048 116.812 22.3331 116.389 22.3331" fill="#999999"/>
<path fill-rule="evenodd" clip-rule="evenodd" d="M63.6072 12.633C63.6072 14.1746 63.6462 15.4601 62.8661 16.8292C62.2365 17.9422 61.2336 18.6267 60.1248 18.6267C58.6037 18.6267 57.7122 17.4692 57.7122 15.7606C57.7122 12.3881 60.7377 11.7759 63.6072 11.7759V12.633ZM67.6021 22.2775C67.3402 22.5112 66.9614 22.5279 66.6661 22.3721C65.3511 21.2813 65.1115 20.7749 64.3928 19.7342C62.2198 21.9492 60.6764 22.6114 57.8627 22.6114C54.5252 22.6114 51.9343 20.5579 51.9343 16.4452C51.9343 13.234 53.6727 11.0469 56.1577 9.97838C58.3084 9.03229 61.3116 8.86534 63.6072 8.60378V8.09177C63.6072 7.15125 63.6796 6.03821 63.1224 5.22569C62.6432 4.49664 61.7183 4.19612 60.8993 4.19612C59.3893 4.19612 58.0465 4.96969 57.7178 6.57247C57.651 6.92864 57.3891 7.27925 57.0269 7.29595L53.188 6.88412C52.8648 6.81178 52.5026 6.55021 52.5974 6.05491C53.4777 1.40239 57.69 -4.95911e-05 61.4565 -4.95911e-05C63.3843 -4.95911e-05 65.9027 0.511951 67.4238 1.97004C69.3516 3.7676 69.1678 6.16621 69.1678 8.7763V14.9426C69.1678 16.7958 69.9367 17.6083 70.661 18.61C70.9117 18.9662 70.9675 19.3947 70.6443 19.6619C69.8364 20.3352 68.3989 21.5874 67.6077 22.2886L67.6021 22.2775" fill="#999999"/>
<path fill-rule="evenodd" clip-rule="evenodd" d="M11.6728 12.6331C11.6728 14.1746 11.7118 15.4602 10.9318 16.8292C10.3022 17.9423 9.30483 18.6268 8.19048 18.6268C6.66939 18.6268 5.78348 17.4692 5.78348 15.7607C5.78348 12.3882 8.80895 11.776 11.6728 11.776V12.6331ZM15.6678 22.2776C15.4059 22.5113 15.027 22.528 14.7317 22.3722C13.4168 21.2814 13.1828 20.775 12.4584 19.7343C10.2855 21.9492 8.74766 22.6115 5.92835 22.6115C2.59644 22.6115 0 20.5579 0 16.4452C0 13.2341 1.74396 11.047 4.22339 9.97847C6.37409 9.03238 9.37727 8.86543 11.6728 8.60386V8.09186C11.6728 7.15134 11.7453 6.03829 11.1937 5.22578C10.7089 4.49673 9.78401 4.19621 8.97053 4.19621C7.46059 4.19621 6.11222 4.96977 5.78348 6.57256C5.71662 6.92873 5.45475 7.27934 5.09816 7.29604L1.25365 6.88421C0.930483 6.81186 0.57389 6.55029 0.663038 6.05499C1.54895 1.40248 5.75562 3.8147e-05 9.52213 3.8147e-05C11.45 3.8147e-05 13.9684 0.512039 15.4895 1.97012C17.4173 3.76769 17.2334 6.1663 17.2334 8.77638V14.9426C17.2334 16.7959 18.0024 17.6084 18.7267 18.6101C18.983 18.9663 19.0387 19.3948 18.7155 19.6619C17.9076 20.3353 16.4701 21.5875 15.6789 22.2887L15.6678 22.2776" fill="#999999"/>
</g>
<defs>
<clipPath id="clip0_4_56">
<rect width="128" height="38.528" fill="white"/>
</clipPath>
</defs>
</svg>
