<svg width="129" height="25" viewBox="0 0 129 25" fill="none" xmlns="http://www.w3.org/2000/svg">
<path d="M2.38899 15.9514L7.00318 20.5656C7.00603 20.5684 7.0091 20.5711 7.01195 20.5739C7.0148 20.5768 7.0182 20.5806 7.02149 20.5839C8.36798 21.9303 10.1431 22.7632 12.0392 22.9383C13.9353 23.1134 15.8328 22.6198 17.4032 21.5428C18.9737 22.6198 20.8712 23.1134 22.7673 22.9383C24.6634 22.7632 26.4385 21.9303 27.785 20.5839L32.3992 15.9698C33.8368 14.5318 34.6855 12.6088 34.779 10.5776C34.8724 8.54641 34.2039 6.55348 32.9044 4.98954C31.6049 3.42571 29.7682 2.40348 27.7542 2.12341C25.7402 1.84334 23.6942 2.32551 22.0173 3.47549C20.6595 2.54439 19.0518 2.04588 17.4056 2.04533C15.7591 2.0449 14.1512 2.54252 12.7929 3.47286C11.118 2.31575 9.07089 1.82689 7.05384 2.10213C5.0368 2.37748 3.19564 3.39698 1.89192 4.96059C0.5883 6.5242 -0.0834643 8.51877 0.00843157 10.5524C0.100434 12.5861 0.949513 14.5119 2.38899 15.9514ZM24.5229 5.7861C25.5645 5.28858 26.7485 5.17541 27.8656 5.46644C28.9826 5.75737 29.9609 6.43396 30.6274 7.37647C31.2939 8.31898 31.6057 9.46666 31.5078 10.6169C31.41 11.7671 30.9086 12.8456 30.0924 13.662L25.4784 18.2761C24.7622 18.9914 23.8421 19.4674 22.8446 19.6388C21.847 19.8101 20.8209 19.6685 19.9071 19.2333L23.1709 15.9698C24.4226 14.7246 25.2329 13.1044 25.4784 11.3561C25.5324 10.9738 25.5597 10.5882 25.5599 10.2021C25.5632 8.6758 25.1352 7.17963 24.3252 5.88588C24.3905 5.85101 24.4565 5.8179 24.5229 5.78643L24.5229 5.7861ZM13.9427 6.74122C14.8615 5.82842 16.1047 5.3172 17.3999 5.31928C18.695 5.32147 19.9365 5.83698 20.8523 6.75273C21.7681 7.66859 22.2836 8.91003 22.2858 10.2052C22.2879 11.5004 21.7766 12.7435 20.8638 13.6624L17.4033 17.123L13.9427 13.6624C13.0265 12.7439 12.512 11.4995 12.512 10.2021C12.512 8.90488 13.0265 7.66048 13.9427 6.74198L13.9427 6.74122ZM4.69609 6.7229C5.41566 6.00519 6.34052 5.52895 7.34268 5.35996C8.34485 5.19098 9.37475 5.3377 10.2898 5.77984C10.3556 5.81154 10.4208 5.84476 10.4852 5.87952C9.67269 7.17469 9.24327 8.67328 9.24656 10.2021C9.24689 10.5882 9.27409 10.9738 9.32815 11.3561C9.57357 13.1044 10.3839 14.7246 11.6356 15.9698L14.8795 19.2136L14.8978 19.2319C13.9844 19.6669 12.9588 19.8086 11.9617 19.6376C10.9646 19.4667 10.0449 18.9913 9.32859 18.2769C9.3253 18.2736 9.32223 18.2701 9.31905 18.2668C9.31587 18.2635 9.31313 18.2613 9.31027 18.2585L4.71769 13.6659L4.69576 13.644C3.77803 12.7261 3.26242 11.4813 3.26242 10.1834C3.26242 8.88547 3.77803 7.64063 4.69576 6.72279L4.69609 6.7229Z" fill="white"/>
<path d="M46.6887 17.6375L49.6546 5.10892H51.3114L51.6899 7.19531L48.5296 20H46.75L46.6887 17.6375ZM45.1648 5.10892L47.6194 17.6375L47.4148 20H45.4307L42.1272 5.10892H45.1648ZM54.2978 17.5863L56.7217 5.10892H59.7593L56.466 20H54.4819L54.2978 17.5863ZM52.2421 5.10892L55.2285 17.6886L55.1467 20H53.3671L50.1864 7.18508L50.5955 5.10892H52.2421ZM66.8673 17.5045V12.5749C66.8673 12.2204 66.8093 11.917 66.6934 11.6647C66.5775 11.4056 66.3968 11.2044 66.1514 11.0613C65.9127 10.9181 65.6025 10.8465 65.2207 10.8465C64.8934 10.8465 64.6105 10.9044 64.3718 11.0204C64.1332 11.1294 63.9491 11.2897 63.8195 11.501C63.69 11.7056 63.6252 11.9476 63.6252 12.2272H60.6797C60.6797 11.7567 60.7888 11.3101 61.007 10.8874C61.2252 10.4647 61.5422 10.0931 61.9582 9.77261C62.3741 9.44533 62.8684 9.18965 63.4411 9.00556C64.0207 8.82146 64.6684 8.72942 65.3843 8.72942C66.2434 8.72942 67.0071 8.8726 67.6753 9.15897C68.3435 9.44533 68.8685 9.87488 69.2503 10.4476C69.6389 11.0204 69.8332 11.7363 69.8332 12.5954V17.3307C69.8332 17.9375 69.8707 18.4352 69.9457 18.8239C70.0207 19.2057 70.1298 19.5398 70.273 19.8261V20H67.2969C67.1537 19.7 67.0446 19.325 66.9696 18.875C66.9014 18.4182 66.8673 17.9613 66.8673 17.5045ZM67.2559 13.2602L67.2764 14.9272H65.6298C65.2411 14.9272 64.9036 14.9715 64.6173 15.0602C64.3309 15.1488 64.0957 15.2749 63.9116 15.4386C63.7275 15.5954 63.5911 15.7795 63.5025 15.9909C63.4207 16.2022 63.3798 16.4341 63.3798 16.6863C63.3798 16.9386 63.4377 17.167 63.5536 17.3716C63.6695 17.5693 63.8366 17.7261 64.0548 17.842C64.273 17.9511 64.5286 18.0057 64.8218 18.0057C65.265 18.0057 65.6502 17.917 65.9775 17.7397C66.3048 17.5625 66.5571 17.3443 66.7343 17.0852C66.9184 16.8261 67.0139 16.5806 67.0207 16.3488L67.798 17.5966C67.6889 17.8761 67.5389 18.1659 67.348 18.4659C67.1639 18.7659 66.9287 19.0489 66.6423 19.3148C66.3559 19.5739 66.0116 19.7886 65.6093 19.9591C65.2071 20.1227 64.7298 20.2045 64.1775 20.2045C63.4752 20.2045 62.8377 20.0648 62.265 19.7852C61.6991 19.4989 61.2491 19.1068 60.915 18.6091C60.5877 18.1045 60.424 17.5318 60.424 16.8909C60.424 16.3113 60.5331 15.7965 60.7513 15.3465C60.9695 14.8965 61.29 14.5181 61.7127 14.2113C62.1422 13.8977 62.6775 13.6624 63.3184 13.5056C63.9593 13.342 64.7025 13.2602 65.548 13.2602H67.2559ZM75.0492 4.2805V20H72.1037V4.2805H75.0492ZM82.0243 8.93396L77.2174 14.4158L74.6401 17.0238L73.5662 14.8965L75.6117 12.2988L78.4856 8.93396H82.0243ZM78.9663 20L75.6935 14.8863L77.7288 13.1067L82.3618 20H78.9663ZM89.2653 17.5045V12.5749C89.2653 12.2204 89.2073 11.917 89.0914 11.6647C88.9755 11.4056 88.7948 11.2044 88.5494 11.0613C88.3107 10.9181 88.0005 10.8465 87.6187 10.8465C87.2914 10.8465 87.0084 10.9044 86.7698 11.0204C86.5312 11.1294 86.3471 11.2897 86.2175 11.501C86.088 11.7056 86.0232 11.9476 86.0232 12.2272H83.0777C83.0777 11.7567 83.1868 11.3101 83.405 10.8874C83.6232 10.4647 83.9402 10.0931 84.3561 9.77261C84.7721 9.44533 85.2664 9.18965 85.8391 9.00556C86.4187 8.82146 87.0664 8.72942 87.7823 8.72942C88.6414 8.72942 89.4051 8.8726 90.0732 9.15897C90.7414 9.44533 91.2664 9.87488 91.6483 10.4476C92.0369 11.0204 92.2312 11.7363 92.2312 12.5954V17.3307C92.2312 17.9375 92.2687 18.4352 92.3437 18.8239C92.4187 19.2057 92.5278 19.5398 92.671 19.8261V20H89.6948C89.5517 19.7 89.4426 19.325 89.3676 18.875C89.2994 18.4182 89.2653 17.9613 89.2653 17.5045ZM89.6539 13.2602L89.6744 14.9272H88.0278C87.6391 14.9272 87.3016 14.9715 87.0153 15.0602C86.7289 15.1488 86.4937 15.2749 86.3096 15.4386C86.1255 15.5954 85.9891 15.7795 85.9005 15.9909C85.8187 16.2022 85.7777 16.4341 85.7777 16.6863C85.7777 16.9386 85.8357 17.167 85.9516 17.3716C86.0675 17.5693 86.2346 17.7261 86.4528 17.842C86.6709 17.9511 86.9266 18.0057 87.2198 18.0057C87.663 18.0057 88.0482 17.917 88.3755 17.7397C88.7028 17.5625 88.9551 17.3443 89.1323 17.0852C89.3164 16.8261 89.4119 16.5806 89.4187 16.3488L90.196 17.5966C90.0869 17.8761 89.9369 18.1659 89.746 18.4659C89.5619 18.7659 89.3266 19.0489 89.0403 19.3148C88.7539 19.5739 88.4096 19.7886 88.0073 19.9591C87.605 20.1227 87.1278 20.2045 86.5755 20.2045C85.8732 20.2045 85.2357 20.0648 84.663 19.7852C84.097 19.4989 83.647 19.1068 83.3129 18.6091C82.9857 18.1045 82.822 17.5318 82.822 16.8909C82.822 16.3113 82.9311 15.7965 83.1493 15.3465C83.3675 14.8965 83.6879 14.5181 84.1107 14.2113C84.5402 13.8977 85.0755 13.6624 85.7164 13.5056C86.3573 13.342 87.1005 13.2602 87.946 13.2602H89.6539ZM97.3858 11.2965V20H94.4403V8.93396H97.2017L97.3858 11.2965ZM96.9563 14.0783H96.1585C96.1585 13.2602 96.2642 12.5238 96.4756 11.8692C96.687 11.2079 96.9836 10.6453 97.3654 10.1817C97.7472 9.71125 98.2006 9.35329 98.7256 9.10783C99.2574 8.85555 99.8506 8.72942 100.505 8.72942C101.023 8.72942 101.497 8.80442 101.927 8.95442C102.356 9.10442 102.725 9.34306 103.031 9.67034C103.345 9.99761 103.584 10.4306 103.747 10.9692C103.918 11.5079 104.003 12.1658 104.003 12.9431V20H101.037V12.9329C101.037 12.442 100.969 12.0601 100.832 11.7874C100.696 11.5147 100.495 11.3238 100.229 11.2147C99.97 11.0988 99.6495 11.0408 99.2677 11.0408C98.8722 11.0408 98.5279 11.1192 98.2347 11.276C97.9483 11.4329 97.7097 11.651 97.5188 11.9306C97.3347 12.2033 97.1949 12.5238 97.0995 12.892C97.004 13.2602 96.9563 13.6556 96.9563 14.0783ZM112.778 17.5863V4.29073H115.744V20H113.075L112.778 17.5863ZM105.783 14.5999V14.3852C105.783 13.5397 105.878 12.7726 106.069 12.084C106.26 11.3885 106.539 10.7919 106.908 10.2942C107.276 9.79647 107.729 9.41124 108.268 9.13851C108.806 8.86578 109.42 8.72942 110.109 8.72942C110.756 8.72942 111.322 8.86578 111.806 9.13851C112.297 9.41124 112.713 9.79988 113.054 10.3044C113.402 10.8022 113.681 11.3919 113.893 12.0738C114.104 12.7488 114.258 13.4886 114.353 14.2931V14.7636C114.258 15.534 114.104 16.25 113.893 16.9113C113.681 17.5727 113.402 18.1523 113.054 18.65C112.713 19.1409 112.297 19.5227 111.806 19.7955C111.316 20.0682 110.743 20.2045 110.088 20.2045C109.4 20.2045 108.786 20.0648 108.247 19.7852C107.715 19.5057 107.265 19.1136 106.897 18.6091C106.536 18.1045 106.26 17.5113 106.069 16.8295C105.878 16.1477 105.783 15.4045 105.783 14.5999ZM108.728 14.3852V14.5999C108.728 15.0568 108.762 15.4829 108.83 15.8784C108.905 16.2738 109.025 16.625 109.188 16.9318C109.359 17.2318 109.577 17.467 109.843 17.6375C110.116 17.8011 110.446 17.8829 110.835 17.8829C111.339 17.8829 111.755 17.7704 112.083 17.5454C112.41 17.3136 112.659 16.9966 112.829 16.5943C113.006 16.192 113.109 15.7284 113.136 15.2034V13.8636C113.116 13.434 113.054 13.0488 112.952 12.7079C112.856 12.3601 112.713 12.0635 112.522 11.8181C112.338 11.5726 112.106 11.3817 111.827 11.2454C111.554 11.109 111.23 11.0408 110.855 11.0408C110.473 11.0408 110.146 11.1294 109.873 11.3067C109.601 11.4772 109.379 11.7124 109.209 12.0124C109.045 12.3124 108.922 12.667 108.841 13.0761C108.766 13.4783 108.728 13.9147 108.728 14.3852ZM124.018 17.5045V12.5749C124.018 12.2204 123.96 11.917 123.844 11.6647C123.728 11.4056 123.547 11.2044 123.302 11.0613C123.063 10.9181 122.753 10.8465 122.371 10.8465C122.044 10.8465 121.761 10.9044 121.522 11.0204C121.284 11.1294 121.1 11.2897 120.97 11.501C120.841 11.7056 120.776 11.9476 120.776 12.2272H117.83C117.83 11.7567 117.939 11.3101 118.158 10.8874C118.376 10.4647 118.693 10.0931 119.109 9.77261C119.525 9.44533 120.019 9.18965 120.592 9.00556C121.171 8.82146 121.819 8.72942 122.535 8.72942C123.394 8.72942 124.158 8.8726 124.826 9.15897C125.494 9.44533 126.019 9.87488 126.401 10.4476C126.79 11.0204 126.984 11.7363 126.984 12.5954V17.3307C126.984 17.9375 127.021 18.4352 127.096 18.8239C127.171 19.2057 127.28 19.5398 127.424 19.8261V20H124.448C124.304 19.7 124.195 19.325 124.12 18.875C124.052 18.4182 124.018 17.9613 124.018 17.5045ZM124.407 13.2602L124.427 14.9272H122.78C122.392 14.9272 122.054 14.9715 121.768 15.0602C121.482 15.1488 121.246 15.2749 121.062 15.4386C120.878 15.5954 120.742 15.7795 120.653 15.9909C120.571 16.2022 120.53 16.4341 120.53 16.6863C120.53 16.9386 120.588 17.167 120.704 17.3716C120.82 17.5693 120.987 17.7261 121.205 17.842C121.424 17.9511 121.679 18.0057 121.972 18.0057C122.416 18.0057 122.801 17.917 123.128 17.7397C123.455 17.5625 123.708 17.3443 123.885 17.0852C124.069 16.8261 124.165 16.5806 124.171 16.3488L124.949 17.5966C124.84 17.8761 124.69 18.1659 124.499 18.4659C124.315 18.7659 124.079 19.0489 123.793 19.3148C123.507 19.5739 123.162 19.7886 122.76 19.9591C122.358 20.1227 121.88 20.2045 121.328 20.2045C120.626 20.2045 119.988 20.0648 119.416 19.7852C118.85 19.4989 118.4 19.1068 118.066 18.6091C117.738 18.1045 117.575 17.5318 117.575 16.8909C117.575 16.3113 117.684 15.7965 117.902 15.3465C118.12 14.8965 118.441 14.5181 118.863 14.2113C119.293 13.8977 119.828 13.6624 120.469 13.5056C121.11 13.342 121.853 13.2602 122.699 13.2602H124.407Z" fill="#F7F8F8"/>
</svg>
