<svg width="106" height="251" viewBox="0 0 106 251" fill="none" xmlns="http://www.w3.org/2000/svg">
<g clip-path="url(#clip0_7_32)">
<path d="M193.763 0H6.68148C2.9914 0 0 2.99273 0 6.68444V243.982C0 247.674 2.9914 250.667 6.68148 250.667H193.763C197.453 250.667 200.444 247.674 200.444 243.982V6.68444C200.444 2.99273 197.453 0 193.763 0Z" fill="#B8C5D0"/>
<path fill-rule="evenodd" clip-rule="evenodd" d="M13.3629 26.7378H187.081C190.771 26.7378 193.763 29.7306 193.763 33.4223V237.298C193.763 240.989 190.771 243.982 187.081 243.982H13.3629C9.6728 243.982 6.6814 240.989 6.6814 237.298V33.4223C6.6814 29.7306 9.6728 26.7378 13.3629 26.7378ZM10.0221 10.0267C11.8672 10.0267 13.3629 11.5231 13.3629 13.369C13.3629 15.2148 11.8672 16.7112 10.0221 16.7112C8.1771 16.7112 6.6814 15.2148 6.6814 13.369C6.6814 11.5231 8.1771 10.0267 10.0221 10.0267ZM20.0444 10.0267C21.8894 10.0267 23.3851 11.5231 23.3851 13.369C23.3851 15.2148 21.8894 16.7112 20.0444 16.7112C18.1993 16.7112 16.7036 15.2148 16.7036 13.369C16.7036 11.5231 18.1993 10.0267 20.0444 10.0267ZM30.0666 10.0267C31.9117 10.0267 33.4073 11.5231 33.4073 13.369C33.4073 15.2148 31.9117 16.7112 30.0666 16.7112C28.2215 16.7112 26.7258 15.2148 26.7258 13.369C26.7258 11.5231 28.2215 10.0267 30.0666 10.0267Z" fill="white"/>
<path d="M61.8037 46.7911H16.7037C13.0136 46.7911 10.0222 49.7839 10.0222 53.4756V96.9245C10.0222 100.616 13.0136 103.609 16.7037 103.609H61.8037C65.4938 103.609 68.4852 100.616 68.4852 96.9245V53.4756C68.4852 49.7839 65.4938 46.7911 61.8037 46.7911Z" fill="#B8C5D0"/>
<path fill-rule="evenodd" clip-rule="evenodd" d="M40.0888 93.2313C47.4685 93.2313 53.4518 96.607 53.4518 100.768C53.4518 104.929 47.4685 103.275 40.0888 103.275C32.7091 103.275 26.7258 104.929 26.7258 100.768C26.7258 96.607 32.7091 93.2313 40.0888 93.2313ZM40.0888 68.5156C46.1955 68.5975 51.0873 73.6021 51.0326 79.7117C50.9779 85.8214 45.9972 90.7377 39.8902 90.7101C33.783 90.6825 28.8469 85.7217 28.8472 79.6118C28.8666 76.6487 30.0621 73.8149 32.1704 71.7338C34.2787 69.6528 37.1271 68.495 40.0888 68.5156Z" fill="#1D242B"/>
<path d="M130.289 50.1334H80.1777C79.2552 50.1334 78.5073 50.8815 78.5073 51.8045V53.4756C78.5073 54.3985 79.2552 55.1467 80.1777 55.1467H130.289C131.211 55.1467 131.959 54.3985 131.959 53.4756V51.8045C131.959 50.8815 131.211 50.1334 130.289 50.1334Z" fill="#1D242B"/>
<path d="M146.993 65.1733H80.1777C79.2552 65.1733 78.5073 65.9215 78.5073 66.8445V68.5156C78.5073 69.4385 79.2552 70.1867 80.1777 70.1867H146.993C147.915 70.1867 148.663 69.4385 148.663 68.5156V66.8445C148.663 65.9215 147.915 65.1733 146.993 65.1733Z" fill="#B8C5D0"/>
<path d="M180.4 75.2H80.1777C79.2552 75.2 78.5073 75.9482 78.5073 76.8711V78.5422C78.5073 79.4652 79.2552 80.2133 80.1777 80.2133H180.4C181.322 80.2133 182.07 79.4652 182.07 78.5422V76.8711C182.07 75.9482 181.322 75.2 180.4 75.2Z" fill="#B8C5D0"/>
<path d="M182.07 85.2267H80.1777C79.2552 85.2267 78.5073 85.9749 78.5073 86.8978V88.5689C78.5073 89.4918 79.2552 90.24 80.1777 90.24H182.07C182.993 90.24 183.741 89.4918 183.741 88.5689V86.8978C183.741 85.9749 182.993 85.2267 182.07 85.2267Z" fill="#B8C5D0"/>
<path d="M153.674 95.2534H80.1777C79.2552 95.2534 78.5073 96.0016 78.5073 96.9245V98.5956C78.5073 99.5186 79.2552 100.267 80.1777 100.267H153.674C154.597 100.267 155.344 99.5186 155.344 98.5956V96.9245C155.344 96.0016 154.597 95.2534 153.674 95.2534Z" fill="#B8C5D0"/>
<path d="M61.8037 106.951H16.7037C13.0136 106.951 10.0222 109.944 10.0222 113.636V157.084C10.0222 160.776 13.0136 163.769 16.7037 163.769H61.8037C65.4938 163.769 68.4852 160.776 68.4852 157.084V113.636C68.4852 109.944 65.4938 106.951 61.8037 106.951Z" fill="#B8C5D0"/>
<path fill-rule="evenodd" clip-rule="evenodd" d="M40.0888 153.391C47.4685 153.391 53.4518 156.767 53.4518 160.928C53.4518 165.089 47.4685 163.435 40.0888 163.435C32.7091 163.435 26.7258 165.089 26.7258 160.928C26.7258 156.767 32.7091 153.391 40.0888 153.391ZM40.0888 128.676C46.1955 128.757 51.0873 133.762 51.0326 139.872C50.9779 145.981 45.9972 150.898 39.8902 150.87C33.783 150.843 28.8469 145.882 28.8472 139.772C28.8666 136.809 30.0621 133.975 32.1704 131.894C34.2787 129.813 37.1271 128.655 40.0888 128.676Z" fill="#1D242B"/>
<path d="M146.993 110.293H80.1777C79.2552 110.293 78.5073 111.042 78.5073 111.964V113.636C78.5073 114.558 79.2552 115.307 80.1777 115.307H146.993C147.915 115.307 148.663 114.558 148.663 113.636V111.964C148.663 111.042 147.915 110.293 146.993 110.293Z" fill="#1D242B"/>
<path d="M182.07 125.333H80.1777C79.2552 125.333 78.5073 126.082 78.5073 127.004V128.676C78.5073 129.599 79.2552 130.347 80.1777 130.347H182.07C182.993 130.347 183.741 129.599 183.741 128.676V127.004C183.741 126.082 182.993 125.333 182.07 125.333Z" fill="#B8C5D0"/>
<path d="M177.059 135.36H80.1777C79.2552 135.36 78.5073 136.108 78.5073 137.031V138.702C78.5073 139.625 79.2552 140.373 80.1777 140.373H177.059C177.982 140.373 178.73 139.625 178.73 138.702V137.031C178.73 136.108 177.982 135.36 177.059 135.36Z" fill="#B8C5D0"/>
<path d="M173.718 145.387H80.1777C79.2552 145.387 78.5073 146.135 78.5073 147.058V148.729C78.5073 149.652 79.2552 150.4 80.1777 150.4H173.718C174.641 150.4 175.389 149.652 175.389 148.729V147.058C175.389 146.135 174.641 145.387 173.718 145.387Z" fill="#B8C5D0"/>
<path d="M153.674 155.413H80.1777C79.2552 155.413 78.5073 156.162 78.5073 157.084V158.756C78.5073 159.678 79.2552 160.427 80.1777 160.427H153.674C154.597 160.427 155.344 159.678 155.344 158.756V157.084C155.344 156.162 154.597 155.413 153.674 155.413Z" fill="#B8C5D0"/>
<path d="M61.8037 167.111H16.7037C13.0136 167.111 10.0222 170.104 10.0222 173.796V217.244C10.0222 220.936 13.0136 223.929 16.7037 223.929H61.8037C65.4938 223.929 68.4852 220.936 68.4852 217.244V173.796C68.4852 170.104 65.4938 167.111 61.8037 167.111Z" fill="#B8C5D0"/>
<path fill-rule="evenodd" clip-rule="evenodd" d="M40.0888 213.551C47.4685 213.551 53.4518 216.927 53.4518 221.088C53.4518 225.249 47.4685 223.595 40.0888 223.595C32.7091 223.595 26.7258 225.249 26.7258 221.088C26.7258 216.927 32.7091 213.551 40.0888 213.551ZM40.0888 188.836C46.1955 188.917 51.0873 193.922 51.0326 200.032C50.9779 206.142 45.9972 211.058 39.8902 211.03C33.783 211.003 28.8469 206.041 28.8472 199.932C28.8666 196.969 30.0621 194.135 32.1704 192.054C34.2787 189.974 37.1271 188.816 40.0888 188.836Z" fill="#1D242B"/>
<path d="M163.696 170.453H80.1777C79.2552 170.453 78.5073 171.202 78.5073 172.124V173.796C78.5073 174.719 79.2552 175.467 80.1777 175.467H163.696C164.619 175.467 165.367 174.719 165.367 173.796V172.124C165.367 171.202 164.619 170.453 163.696 170.453Z" fill="#1D242B"/>
<path d="M130.289 185.493H80.1777C79.2552 185.493 78.5073 186.242 78.5073 187.165V188.836C78.5073 189.759 79.2552 190.507 80.1777 190.507H130.289C131.211 190.507 131.959 189.759 131.959 188.836V187.165C131.959 186.242 131.211 185.493 130.289 185.493Z" fill="#B8C5D0"/>
<path d="M168.707 195.52H80.1777C79.2552 195.52 78.5073 196.268 78.5073 197.191V198.862C78.5073 199.785 79.2552 200.533 80.1777 200.533H168.707C169.63 200.533 170.378 199.785 170.378 198.862V197.191C170.378 196.268 169.63 195.52 168.707 195.52Z" fill="#B8C5D0"/>
<path d="M175.389 205.547H80.1777C79.2552 205.547 78.5073 206.295 78.5073 207.218V208.889C78.5073 209.812 79.2552 210.56 80.1777 210.56H175.389C176.311 210.56 177.059 209.812 177.059 208.889V207.218C177.059 206.295 176.311 205.547 175.389 205.547Z" fill="#B8C5D0"/>
<path d="M145.322 215.573H80.1777C79.2552 215.573 78.5073 216.322 78.5073 217.244V218.916C78.5073 219.839 79.2552 220.587 80.1777 220.587H145.322C146.245 220.587 146.992 219.839 146.992 218.916V217.244C146.992 216.322 146.245 215.573 145.322 215.573Z" fill="#B8C5D0"/>
</g>
<defs>
<clipPath id="clip0_7_32">
<rect width="200.444" height="250.667" fill="white"/>
</clipPath>
</defs>
</svg>
