<svg width="33" height="33" viewBox="0 0 33 33" fill="none" xmlns="http://www.w3.org/2000/svg">
<path opacity="0.1" fill-rule="evenodd" clip-rule="evenodd" d="M0 16.1111C0 7.2132 7.2132 0 16.1111 0C25.0091 0 32.2223 7.2132 32.2223 16.1111C32.2223 25.0091 25.0091 32.2223 16.1111 32.2223C7.2132 32.2223 0 25.0091 0 16.1111Z" fill="white"/>
<path fill-rule="evenodd" clip-rule="evenodd" d="M15.6287 13.0953L15.6625 13.6528L15.099 13.5845C13.048 13.3228 11.2562 12.4354 9.7348 10.945L8.99102 10.2055L8.79944 10.7516C8.39375 11.9689 8.65294 13.2546 9.49815 14.1192C9.94892 14.5971 9.8475 14.6653 9.06991 14.3809C8.79944 14.2899 8.56279 14.2216 8.54025 14.2557C8.46136 14.3354 8.73183 15.3707 8.94595 15.7803C9.23895 16.3491 9.83623 16.9066 10.4899 17.2366L11.0421 17.4982L10.3884 17.5096C9.75734 17.5096 9.7348 17.521 9.80242 17.7599C10.0278 18.4994 10.9181 19.2845 11.9098 19.6258L12.6085 19.8647L12 20.2288C11.0984 20.7521 10.0391 21.0479 8.97975 21.0707C8.47263 21.082 8.05566 21.1276 8.05566 21.1617C8.05566 21.2755 9.43053 21.9126 10.2307 22.1629C12.631 22.9024 15.4822 22.5838 17.6234 21.321C19.1448 20.4222 20.6661 18.636 21.3761 16.9066C21.7593 15.9851 22.1424 14.3013 22.1424 13.4935C22.1424 12.9701 22.1762 12.9019 22.8073 12.2761C23.1792 11.912 23.5286 11.5138 23.5962 11.4001C23.7089 11.1839 23.6976 11.1839 23.1229 11.3773C22.165 11.7186 22.0297 11.6731 22.503 11.1612C22.8524 10.7971 23.2694 10.1372 23.2694 9.9438C23.2694 9.90967 23.1003 9.96655 22.9087 10.0689C22.7059 10.1827 22.2551 10.3534 21.917 10.4558L21.3085 10.6492L20.7563 10.2737C20.452 10.0689 20.0238 9.8414 19.7984 9.77314C19.2236 9.61386 18.3446 9.63662 17.8262 9.81865C16.4176 10.3306 15.5273 11.6504 15.6287 13.0953Z" fill="white"/>
</svg>
