<svg width="33" height="33" viewBox="0 0 33 33" fill="none" xmlns="http://www.w3.org/2000/svg">
<path opacity="0.1" fill-rule="evenodd" clip-rule="evenodd" d="M0 16.1111C0 7.2132 7.2132 0 16.1111 0C25.0091 0 32.2223 7.2132 32.2223 16.1111C32.2223 25.0091 25.0091 32.2223 16.1111 32.2223C7.2132 32.2223 0 25.0091 0 16.1111Z" fill="white"/>
<path fill-rule="evenodd" clip-rule="evenodd" d="M16.1117 7.51855C13.7781 7.51855 13.4852 7.52876 12.5687 7.57047C11.6539 7.61236 11.0295 7.75718 10.4831 7.96967C9.918 8.18914 9.4386 8.48273 8.96099 8.96052C8.48302 9.43813 8.18944 9.91753 7.96925 10.4825C7.75622 11.029 7.61122 11.6536 7.57005 12.568C7.52905 13.4846 7.51831 13.7776 7.51831 16.1112C7.51831 18.4449 7.52869 18.7368 7.57022 19.6534C7.61229 20.5682 7.75712 21.1926 7.96943 21.7389C8.18908 22.3041 8.48266 22.7835 8.96045 23.2611C9.43788 23.739 9.91728 24.0333 10.4821 24.2528C11.0288 24.4653 11.6534 24.6101 12.5679 24.652C13.4845 24.6937 13.7772 24.7039 16.1106 24.7039C18.4445 24.7039 18.7364 24.6937 19.653 24.652C20.5677 24.6101 21.1929 24.4653 21.7396 24.2528C22.3045 24.0333 22.7832 23.739 23.2607 23.2611C23.7386 22.7835 24.0322 22.3041 24.2524 21.7391C24.4636 21.1926 24.6086 20.568 24.6516 19.6536C24.6928 18.737 24.7035 18.4449 24.7035 16.1112C24.7035 13.7776 24.6928 13.4847 24.6516 12.5682C24.6086 11.6534 24.4636 11.029 24.2524 10.4827C24.0322 9.91753 23.7386 9.43813 23.2607 8.96052C22.7827 8.48255 22.3047 8.18896 21.739 7.96967C21.1912 7.75718 20.5665 7.61236 19.6517 7.57047C18.7352 7.52876 18.4434 7.51855 16.109 7.51855H16.1117ZM15.3408 9.067C15.5696 9.06665 15.8249 9.067 16.1117 9.067C18.4059 9.067 18.6779 9.07524 19.5838 9.11641C20.4216 9.15472 20.8763 9.29471 21.1792 9.41232C21.5802 9.56807 21.8661 9.75424 22.1667 10.055C22.4674 10.3557 22.6536 10.6422 22.8097 11.0431C22.9273 11.3457 23.0675 11.8004 23.1056 12.6382C23.1468 13.544 23.1557 13.8161 23.1557 16.1093C23.1557 18.4024 23.1468 18.6745 23.1056 19.5803C23.0673 20.4181 22.9273 20.8728 22.8097 21.1754C22.6539 21.5764 22.4674 21.8619 22.1667 22.1624C21.8659 22.4632 21.5804 22.6494 21.1792 22.8051C20.8767 22.9233 20.4216 23.0629 19.5838 23.1012C18.678 23.1424 18.4059 23.1513 16.1117 23.1513C13.8173 23.1513 13.5453 23.1424 12.6395 23.1012C11.8017 23.0625 11.347 22.9225 11.044 22.8049C10.643 22.6492 10.3565 22.463 10.0558 22.1623C9.75506 21.8615 9.56888 21.5758 9.41278 21.1746C9.29517 20.8721 9.155 20.4174 9.11687 19.5796C9.0757 18.6738 9.06746 18.4017 9.06746 16.1071C9.06746 13.8125 9.0757 13.5418 9.11687 12.636C9.15518 11.7982 9.29517 11.3435 9.41278 11.0406C9.56853 10.6396 9.75506 10.3532 10.0558 10.0525C10.3565 9.75173 10.643 9.56556 11.044 9.40946C11.3469 9.29131 11.8017 9.15168 12.6395 9.11319C13.4322 9.07739 13.7394 9.06665 15.3408 9.06486V9.067ZM20.6984 10.4938C20.1291 10.4938 19.6673 10.9551 19.6673 11.5245C19.6673 12.0938 20.1291 12.5556 20.6984 12.5556C21.2677 12.5556 21.7295 12.0938 21.7295 11.5245C21.7295 10.9553 21.2677 10.4938 20.6984 10.4938ZM16.1117 11.6985C13.6748 11.6985 11.699 13.6743 11.699 16.1112C11.699 18.5481 13.6748 20.523 16.1117 20.523C18.5487 20.523 20.5237 18.5481 20.5237 16.1112C20.5237 13.6743 18.5487 11.6985 16.1117 11.6985ZM16.1117 13.247C17.6935 13.247 18.9759 14.5293 18.9759 16.1112C18.9759 17.693 17.6935 18.9755 16.1117 18.9755C14.5297 18.9755 13.2475 17.693 13.2475 16.1112C13.2475 14.5293 14.5297 13.247 16.1117 13.247Z" fill="white"/>
</svg>
