<svg width="33" height="33" viewBox="0 0 33 33" fill="none" xmlns="http://www.w3.org/2000/svg">
<path opacity="0.1" fill-rule="evenodd" clip-rule="evenodd" d="M0 16.1111C0 7.2132 7.2132 0 16.1111 0C25.0091 0 32.2223 7.2132 32.2223 16.1111C32.2223 25.0091 25.0091 32.2223 16.1111 32.2223C7.2132 32.2223 0 25.0091 0 16.1111Z" fill="white"/>
<path fill-rule="evenodd" clip-rule="evenodd" d="M24.7035 16.0992C24.7035 16.6803 24.6444 17.2606 24.5282 17.8263C24.4148 18.3785 24.247 18.9206 24.0272 19.4389C23.8124 19.948 23.5459 20.4386 23.2346 20.8961C22.9279 21.3507 22.5746 21.7773 22.1865 22.166C21.7975 22.5532 21.3695 22.9055 20.9151 23.2135C20.4561 23.5227 19.9648 23.7887 19.4554 24.0045C18.9364 24.2232 18.393 24.3908 17.8413 24.5039C17.2749 24.6204 16.6925 24.6799 16.1105 24.6799C15.5281 24.6799 14.9458 24.6204 14.3802 24.5039C13.8276 24.3908 13.2842 24.2232 12.7656 24.0045C12.2563 23.7887 11.7645 23.5227 11.3055 23.2135C10.8511 22.9055 10.4231 22.5532 10.035 22.166C9.64646 21.7773 9.29315 21.3507 8.98602 20.8961C8.67637 20.4386 8.4095 19.948 8.19385 19.4389C7.97396 18.9206 7.80573 18.3785 7.69202 17.8263C7.57707 17.2606 7.51831 16.6803 7.51831 16.0992C7.51831 15.5177 7.57703 14.9362 7.69206 14.3718C7.80577 13.8195 7.97399 13.2766 8.19388 12.7591C8.40953 12.2497 8.67641 11.7586 8.98606 11.3011C9.29319 10.8461 9.6465 10.4204 10.035 10.0312C10.4231 9.644 10.8511 9.29252 11.3055 8.98499C11.7645 8.67451 12.2563 8.40849 12.7657 8.19228C13.2843 7.97311 13.8276 7.80513 14.3802 7.69285C14.9458 7.57723 15.5282 7.51855 16.1106 7.51855C16.6925 7.51855 17.2749 7.57723 17.8413 7.69285C18.393 7.80516 18.9364 7.97314 19.4555 8.19228C19.9648 8.40846 20.4562 8.67451 20.9152 8.98499C21.3696 9.29252 21.7976 9.644 22.1865 10.0312C22.5746 10.4204 22.9279 10.8461 23.2346 11.3011C23.5459 11.7586 23.8124 12.2497 24.0272 12.7591C24.247 13.2766 24.4148 13.8195 24.5282 14.3718C24.6444 14.9362 24.7035 15.5177 24.7035 16.0992ZM12.9796 9.4714C10.9332 10.4363 9.40596 12.3192 8.92973 14.5884C9.12318 14.5901 12.1811 14.6286 15.7043 13.6939C14.4343 11.4406 13.0773 9.60174 12.9796 9.4714ZM16.3123 14.8222C12.534 15.9517 8.90834 15.8705 8.77828 15.8655C8.77616 15.9442 8.7724 16.0204 8.7724 16.0992C8.7724 17.9817 9.48358 19.6978 10.6525 20.9954C10.65 20.9916 12.6582 17.4341 16.6182 16.1554C16.7138 16.1235 16.8112 16.095 16.9077 16.0674C16.7235 15.651 16.5225 15.2336 16.3123 14.8222ZM20.9567 10.5997C19.6648 9.46218 17.9684 8.77216 16.1105 8.77216C15.5143 8.77216 14.9357 8.84423 14.3814 8.97746C14.4913 9.12496 15.8697 10.9508 17.1246 13.2518C19.8935 12.2153 20.9386 10.6265 20.9567 10.5997ZM17.4079 17.2816C17.3915 17.287 17.3752 17.2917 17.3592 17.2975C13.0296 18.8047 11.6157 21.8421 11.6004 21.8753C12.8462 22.8427 14.4087 23.4263 16.1105 23.4263C17.1267 23.4263 18.0947 23.2197 18.9754 22.8456C18.8667 22.2054 18.4405 19.9614 17.4079 17.2816ZM20.2111 22.1761C21.8588 21.0658 23.029 19.3028 23.3554 17.2606C23.2044 17.212 21.1513 16.563 18.7828 16.9422C19.7453 19.5835 20.1364 21.7345 20.2111 22.1761ZM17.6894 14.3437C17.8597 14.6931 18.0247 15.0488 18.177 15.4062C18.2311 15.5345 18.284 15.6602 18.3356 15.7858C20.8564 15.4691 23.3399 16.002 23.4461 16.0238C23.4293 14.2867 22.8071 12.6925 21.7774 11.4444C21.7636 11.464 20.5867 13.1622 17.6894 14.3437Z" fill="white"/>
</svg>
