<svg width="33" height="33" viewBox="0 0 33 33" fill="none" xmlns="http://www.w3.org/2000/svg">
<path opacity="0.1" fill-rule="evenodd" clip-rule="evenodd" d="M0 16.1111C0 7.2132 7.2132 0 16.1111 0C25.0091 0 32.2223 7.2132 32.2223 16.1111C32.2223 25.0091 25.0091 32.2223 16.1111 32.2223C7.2132 32.2223 0 25.0091 0 16.1111Z" fill="white"/>
<path fill-rule="evenodd" clip-rule="evenodd" d="M22.8252 10.5725C23.5647 10.7754 24.147 11.3733 24.3446 12.1325C24.7038 13.5086 24.7038 16.3797 24.7038 16.3797C24.7038 16.3797 24.7038 19.2507 24.3446 20.6268C24.147 21.3861 23.5647 21.9839 22.8252 22.1869C21.4851 22.5556 16.1112 22.5556 16.1112 22.5556C16.1112 22.5556 10.7372 22.5556 9.39701 22.1869C8.65756 21.9839 8.07522 21.3861 7.87759 20.6268C7.51855 19.2507 7.51855 16.3797 7.51855 16.3797C7.51855 16.3797 7.51855 13.5086 7.87759 12.1325C8.07522 11.3733 8.65756 10.7754 9.39701 10.5725C10.7372 10.2037 16.1112 10.2037 16.1112 10.2037C16.1112 10.2037 21.4851 10.2037 22.8252 10.5725ZM14.5001 13.9629V19.3333L18.7964 16.6482L14.5001 13.9629Z" fill="white"/>
</svg>
